<svg width="134" height="48" viewBox="0 0 134 48" fill="none" xmlns="http://www.w3.org/2000/svg">
<path d="M81.0391 24.724C82.3344 33.0969 91.1483 39.6069 99.3973 37.7643C102.543 37.0556 105.046 35.1218 103.78 27.7917C103.186 24.3595 105.397 22.7599 104.676 17.3737C103.614 9.5171 94.7517 7.90732 89.5316 9.76009C84.6328 11.5015 79.8315 16.9079 81.0391 24.724Z" fill="#FDB714"/>
<path d="M101.978 11.967C99.8257 9.94211 96.7384 9.06128 93.8264 9.06128C92.2876 9.06128 90.7975 9.30427 89.5217 9.75987C84.623 11.5013 79.8216 16.9077 81.039 24.7238C81.0584 24.825 81.0779 24.9263 81.0974 25.0275C83.425 30.5757 88.5575 35.2633 95.9203 32.6917C98.6862 31.7198 98.7057 28.3281 97.7513 22.1522C97.313 19.2667 102.747 17.7784 102.241 13.2427C102.192 12.7972 102.095 12.372 101.978 11.967Z" fill="#F99D20"/>
<path d="M98.7353 12.0786C97.693 12.0786 96.8552 12.9292 96.8552 13.9824C96.8552 15.0356 97.7027 15.8862 98.7353 15.8862C99.7678 15.8862 100.615 15.0356 100.615 13.9824C100.615 12.9292 99.7678 12.0786 98.7353 12.0786Z" fill="#FCC5A1"/>
<path d="M101.053 17.2115C101.053 17.2115 101.014 17.2115 100.985 17.2115C100.654 17.6369 100.284 18.0318 99.9231 18.4065C99.9523 19.0141 100.449 19.49 101.053 19.49C101.657 19.49 102.183 18.9736 102.183 18.3457C102.183 17.7179 101.677 17.2014 101.053 17.2014" fill="#FFD49A"/>
<path d="M100.985 17.2117C100.391 17.242 99.9231 17.7484 99.9231 18.356C99.9231 18.3762 99.9231 18.3965 99.9231 18.4167C100.284 18.042 100.654 17.6471 100.985 17.2117Z" fill="#FCC5A1"/>
<path d="M88.4506 0.344231C88.4506 0.344231 91.4892 4.86986 91.012 8.37291C91.012 8.37291 92.3462 3.73592 89.8725 0L88.4506 0.344231ZM83.3473 2.278C86.5612 2.12613 87.4864 3.21957 87.837 3.65492C86.756 3.51318 83.3765 3.40181 78.1856 6.05442C77.6402 6.31765 77.3286 6.49989 77.3286 6.49989C77.6207 6.3379 77.9032 6.19616 78.1856 6.05442C79.8023 5.27483 83.5518 3.79667 87.9734 4.30289C87.7981 7.51234 82.7727 7.87682 80.3964 7.45159C77.9032 6.99599 72.4688 10.1244 72.4688 10.1244C72.4688 10.1244 79.3153 2.47036 83.357 2.278" fill="#BFD430"/>
<path d="M105.426 23.9244C105.757 23.9244 106.029 23.6409 106.029 23.2967C106.029 22.9524 105.757 22.6689 105.426 22.6689C105.095 22.6689 104.822 22.9524 104.822 23.2967C104.822 23.6409 105.095 23.9244 105.426 23.9244ZM120.064 37.8151H120.56C124.057 37.8151 127.066 36.4686 129.588 33.7653C132.111 31.0621 133.367 27.8932 133.367 24.2382C133.367 20.5833 132.101 17.4447 129.559 14.8023C127.017 12.1598 123.949 10.8436 120.365 10.8436C116.781 10.8436 113.704 12.1699 111.133 14.8225C108.571 17.4751 107.286 20.6137 107.286 24.2382C107.286 27.8628 108.552 31.0317 111.084 33.7451C113.616 36.4584 116.606 37.8151 120.064 37.8151ZM128.761 33.1275C126.423 35.5877 123.609 36.8128 120.336 36.8128C117.064 36.8128 114.249 35.5877 111.912 33.1275C109.575 30.6673 108.406 27.7312 108.406 24.3192C108.406 20.9073 109.575 17.9712 111.912 15.5211C114.249 13.0811 117.064 11.856 120.356 11.856C123.648 11.856 126.452 13.0811 128.78 15.5211C131.108 17.9712 132.276 20.8972 132.276 24.3192C132.276 27.7413 131.108 30.6774 128.77 33.1275M73.3743 10.8942C74.8449 10.064 79.0619 7.99863 80.9416 8.33273C82.7044 8.64659 86.4637 8.5251 88.0414 5.81175C88.1972 5.54851 88.1096 5.19416 87.8563 5.03216C87.6031 4.87017 87.2623 4.95117 87.1064 5.22453C85.928 7.25954 82.8797 7.5329 81.1266 7.21904C78.4873 6.7432 73.0821 9.7704 72.8484 9.8919C72.5855 10.0438 72.4881 10.388 72.6244 10.6614C72.7218 10.8537 72.9068 10.955 73.1016 10.955C73.1893 10.955 73.2769 10.9347 73.3646 10.8841M91.3137 9.16294C91.8104 5.51814 88.8108 1.00264 88.6842 0.820397C88.5089 0.567286 88.168 0.496415 87.9245 0.678655C87.681 0.860895 87.6226 1.21525 87.7882 1.46836C87.8174 1.50886 90.6709 5.80162 90.2327 9.01107C90.1937 9.32493 90.3982 9.60841 90.7002 9.64891H90.7781C91.041 9.64891 91.2748 9.44642 91.3137 9.16294ZM99.4264 38.1695C99.7186 38.0986 99.9036 37.805 99.8452 37.4911C99.777 37.1874 99.4946 36.995 99.1927 37.0558C95.5015 37.886 91.4306 36.9647 88.0122 34.5449C84.5645 32.0948 82.2466 28.4804 81.6428 24.6128C80.5033 17.2321 85.0125 12.0788 89.697 10.4082C89.9795 10.307 90.1353 9.98302 90.0379 9.68941C89.9405 9.3958 89.6289 9.23381 89.3464 9.33505C84.2431 11.1473 79.3249 16.7563 80.5715 24.7849C81.2143 28.9562 83.7075 32.8541 87.3986 35.4764C90.1743 37.4506 93.3589 38.4833 96.4754 38.4833C97.4688 38.4833 98.4622 38.3719 99.4264 38.1593M97.7123 27.559C100.274 27.2148 102.65 26.2226 104.598 24.704C104.841 24.5116 104.89 24.1572 104.705 23.9142C104.52 23.6611 104.179 23.6105 103.945 23.8029C102.144 25.2102 99.9426 26.1214 97.5662 26.4454C96.8358 26.5466 96.0664 26.577 95.2873 26.5365C94.9854 26.5264 94.7321 26.7592 94.7127 27.0731C94.7029 27.3869 94.9269 27.6502 95.2288 27.6704C95.4626 27.6805 95.6963 27.6907 95.9203 27.6907C96.5241 27.6907 97.1182 27.6502 97.6928 27.5692M29.2173 37.3595H30.2496L34.9341 27.4173H48.3449L53.0878 37.3595H54.2565L41.7223 10.6715L29.2173 37.3595ZM41.6249 13.071L47.9455 26.415H35.3724L41.6249 13.071ZM57.7723 37.3595H58.7462V14.1442L77.2018 37.7442V11.2992H76.2279V34.4842L57.7723 10.9145V37.3595ZM24.1724 11.2992L12.8751 35.3447L1.60695 11.2992H0V37.3696H1.00313V12.6457L12.7679 37.8455L24.6009 12.6457V37.3595H25.7015V11.2992H24.1627H24.1724Z" fill="#231F20"/>
<path d="M84.1357 47.838H84.6909V44.8817H87.5152V44.3552H84.6909V42.1379H87.7295V41.6115H84.1357V47.8481V47.838ZM89.2001 46.0358C89.3559 46.4408 89.5702 46.785 89.8331 47.0787C90.1058 47.3723 90.4272 47.595 90.8168 47.757C91.1966 47.919 91.6154 48 92.0731 48C92.5308 48 92.9496 47.919 93.3294 47.757C93.7093 47.595 94.0404 47.3723 94.3034 47.0787C94.576 46.785 94.7903 46.4408 94.9364 46.0358C95.0922 45.6309 95.1701 45.1955 95.1701 44.7197C95.1701 44.2438 95.0922 43.8085 94.9364 43.4035C94.7806 42.9985 94.576 42.6543 94.3034 42.3708C94.0307 42.0772 93.7093 41.8544 93.3294 41.6925C92.9496 41.5305 92.5308 41.4495 92.0731 41.4495C91.6154 41.4495 91.1966 41.5305 90.8168 41.6925C90.4369 41.8544 90.1058 42.0873 89.8331 42.3708C89.5604 42.6644 89.3462 43.0086 89.2001 43.4035C89.054 43.7983 88.9663 44.2438 88.9663 44.7197C88.9663 45.1955 89.0442 45.641 89.2001 46.0358ZM89.7065 43.6363C89.8234 43.3022 89.9987 43.0086 90.2129 42.7656C90.4369 42.5227 90.6999 42.3202 91.0115 42.1885C91.3232 42.0468 91.6738 41.9759 92.0634 41.9759C92.4529 41.9759 92.8035 42.0468 93.1152 42.1885C93.4268 42.3303 93.6995 42.5227 93.9138 42.7656C94.1378 43.0086 94.3033 43.3022 94.4202 43.6363C94.5371 43.9704 94.5955 44.3349 94.5955 44.7197C94.5955 45.1044 94.5371 45.4689 94.4202 45.803C94.3033 46.1371 94.128 46.4307 93.9138 46.6737C93.6898 46.9167 93.4268 47.109 93.1152 47.2508C92.8035 47.3925 92.4529 47.4634 92.0634 47.4634C91.6738 47.4634 91.3232 47.3925 91.0115 47.2508C90.6999 47.109 90.4272 46.9167 90.2129 46.6737C89.9889 46.4307 89.8234 46.1371 89.7065 45.803C89.5896 45.4689 89.5312 45.1044 89.5312 44.7197C89.5312 44.3349 89.5896 43.9704 89.7065 43.6363ZM97.4978 42.1278H98.6859C98.9781 42.1278 99.2216 42.1683 99.4066 42.2392C99.5917 42.31 99.7378 42.4113 99.8352 42.5227C99.9325 42.634 100.01 42.7555 100.04 42.8871C100.079 43.0188 100.098 43.1301 100.098 43.2415C100.098 43.3529 100.079 43.4642 100.04 43.5958C100.001 43.7275 99.9325 43.849 99.8352 43.9603C99.7378 44.0717 99.5917 44.1628 99.4066 44.2438C99.2216 44.3248 98.9879 44.3552 98.6859 44.3552H97.4978V42.1379V42.1278ZM96.9329 47.838H97.4978V44.8817H98.5399L100.225 47.838H100.858L99.1145 44.8412C99.28 44.8209 99.4553 44.7804 99.6306 44.7197C99.8059 44.6589 99.9715 44.5678 100.127 44.4564C100.273 44.3349 100.4 44.1831 100.497 43.9806C100.595 43.7882 100.643 43.5351 100.643 43.2415C100.643 42.9681 100.605 42.7454 100.517 42.553C100.429 42.3708 100.322 42.2088 100.195 42.0873C100.069 41.9658 99.9228 41.8646 99.7572 41.8038C99.5917 41.7431 99.4359 41.6925 99.2703 41.6621C99.1145 41.6317 98.9684 41.6115 98.832 41.6115C98.6957 41.6115 98.5886 41.6115 98.5106 41.6115H96.9329V47.8481V47.838ZM104.812 47.0584C105.046 47.4026 105.338 47.6456 105.669 47.7874C106 47.9291 106.37 48 106.76 48C107.003 48 107.237 47.9595 107.461 47.8886C107.685 47.8076 107.889 47.6962 108.055 47.5444C108.23 47.3925 108.367 47.2103 108.464 46.9977C108.561 46.785 108.62 46.5319 108.62 46.2485C108.62 45.8637 108.542 45.56 108.386 45.3372C108.23 45.1145 108.045 44.9424 107.811 44.8209C107.578 44.6994 107.334 44.5982 107.062 44.5273C106.789 44.4564 106.545 44.3653 106.312 44.2742C106.078 44.1729 105.893 44.0413 105.737 43.8793C105.581 43.7173 105.503 43.4744 105.503 43.1605C105.503 42.958 105.542 42.7859 105.61 42.6441C105.688 42.4923 105.786 42.3708 105.903 42.2797C106.019 42.1784 106.166 42.1076 106.331 42.0569C106.497 42.0063 106.672 41.9861 106.847 41.9861C107.11 41.9861 107.334 42.0367 107.519 42.1379C107.714 42.2392 107.88 42.391 108.016 42.6037L108.503 42.2392C108.298 41.9557 108.055 41.7532 107.782 41.6317C107.5 41.5102 107.198 41.4495 106.867 41.4495C106.614 41.4495 106.37 41.49 106.136 41.5608C105.903 41.6317 105.698 41.7431 105.523 41.8848C105.347 42.0266 105.201 42.2088 105.094 42.4214C104.987 42.634 104.938 42.877 104.938 43.1605C104.938 43.4541 104.987 43.6971 105.075 43.8996C105.162 44.1021 105.279 44.2641 105.425 44.3957C105.571 44.5273 105.737 44.6387 105.922 44.7197C106.107 44.8007 106.292 44.8715 106.487 44.9424C106.682 45.0031 106.877 45.074 107.052 45.1348C107.237 45.1955 107.402 45.2765 107.549 45.3676C107.695 45.4587 107.811 45.5701 107.899 45.7119C107.987 45.8536 108.035 46.0358 108.035 46.2485C108.035 46.4408 107.997 46.6028 107.928 46.7547C107.86 46.9065 107.763 47.028 107.636 47.1394C107.519 47.2406 107.373 47.3318 107.208 47.3824C107.042 47.4431 106.867 47.4735 106.682 47.4735C106.38 47.4735 106.117 47.4128 105.883 47.2811C105.649 47.1495 105.455 46.9572 105.309 46.6939L104.773 47.0584H104.812ZM109.633 47.838H110.217L110.899 46.1776H114.074L114.726 47.838H115.359L112.827 41.6013H112.252L109.633 47.838ZM113.869 45.6511H111.113L112.515 42.229L113.869 45.6511ZM116.723 47.838H120.083V47.3115H117.288V41.6013H116.723V47.838ZM121.31 46.0358C121.466 46.4408 121.68 46.785 121.943 47.0787C122.216 47.3723 122.537 47.595 122.927 47.757C123.306 47.919 123.725 48 124.183 48C124.641 48 125.059 47.919 125.439 47.757C125.819 47.595 126.15 47.3723 126.423 47.0787C126.696 46.785 126.91 46.4408 127.056 46.0358C127.212 45.6309 127.29 45.1955 127.29 44.7197C127.29 44.2438 127.212 43.8085 127.056 43.4035C126.9 42.9985 126.696 42.6543 126.423 42.3708C126.15 42.0772 125.829 41.8544 125.439 41.6925C125.059 41.5305 124.641 41.4495 124.183 41.4495C123.725 41.4495 123.306 41.5305 122.927 41.6925C122.547 41.8544 122.216 42.0873 121.943 42.3708C121.67 42.6644 121.456 43.0086 121.31 43.4035C121.154 43.8085 121.076 44.2438 121.076 44.7197C121.076 45.1955 121.154 45.641 121.31 46.0358ZM121.816 43.6363C121.933 43.3022 122.108 43.0086 122.323 42.7656C122.547 42.5227 122.81 42.3202 123.121 42.1885C123.433 42.0468 123.784 41.9759 124.173 41.9759C124.563 41.9759 124.913 42.0468 125.225 42.1885C125.537 42.3303 125.809 42.5227 126.024 42.7656C126.248 43.0086 126.413 43.3022 126.53 43.6363C126.647 43.9704 126.705 44.3349 126.705 44.7197C126.705 45.1044 126.647 45.4689 126.53 45.803C126.413 46.1371 126.238 46.4307 126.024 46.6737C125.8 46.9167 125.537 47.109 125.225 47.2508C124.913 47.3925 124.563 47.4634 124.173 47.4634C123.784 47.4634 123.433 47.3925 123.121 47.2508C122.81 47.109 122.537 46.9167 122.323 46.6737C122.099 46.4307 121.933 46.1371 121.816 45.803C121.699 45.4689 121.641 45.1044 121.641 44.7197C121.641 44.3349 121.699 43.9704 121.816 43.6363ZM129.052 47.838H129.608V42.3708H129.627L133.279 47.838H134V41.6013H133.445V47.0685H133.425L129.773 41.6013H129.052V47.838Z" fill="#231F20"/>
</svg>
