<svg width="24" height="16" viewBox="0 0 24 16" fill="none" xmlns="http://www.w3.org/2000/svg">
<g clip-path="url(#clip0_220_1318)">
<path d="M22.6007 2.49556C22.4681 2.01321 22.2096 1.57346 21.8507 1.22011C21.4918 0.866766 21.0452 0.612143 20.5554 0.4816C18.7619 0 11.5438 0 11.5438 0C11.5438 0 4.32541 0.0145777 2.53195 0.496178C2.04206 0.626729 1.59545 0.881365 1.23659 1.23473C0.877738 1.58809 0.619162 2.02786 0.486615 2.51022C-0.0558646 5.64782 -0.266302 10.4288 0.50151 13.4409C0.634072 13.9232 0.892653 14.363 1.25151 14.7163C1.61036 15.0697 2.05696 15.3243 2.54684 15.4548C4.3403 15.9364 11.5586 15.9364 11.5586 15.9364C11.5586 15.9364 18.7767 15.9364 20.5701 15.4548C21.06 15.3243 21.5066 15.0697 21.8655 14.7163C22.2243 14.363 22.4829 13.9233 22.6155 13.4409C23.1877 10.2988 23.364 5.5208 22.6007 2.49556Z" fill="#FF0000"/>
<path d="M9.24634 11.3831L15.2343 7.96816L9.24634 4.55322V11.3831Z" fill="white"/>
</g>
<defs>
<clipPath id="clip0_220_1318">
<rect width="23.1111" height="16" fill="white"/>
</clipPath>
</defs>
</svg>
